<?xml version="1.0" encoding="UTF-8"?>
<svg xmlns="http://www.w3.org/2000/svg" width="2048" height="2048" viewBox="0 0 2048 2048">
  <path d="M 833.00 1649.00 L 849.00 1650.00 L 860.00 1653.00 L 875.00 1663.00 L 886.00 1674.00 L 900.00 1703.00 L 904.00 1719.00 L 906.00 1741.00 L 902.00 1778.00 L 898.00 1789.00 L 888.00 1806.00 L 875.00 1818.00 L 867.00 1822.00 L 849.00 1826.00 L 840.00 1826.00 L 826.00 1822.00 L 815.00 1816.00 L 801.00 1803.00 L 787.00 1776.00 L 781.00 1746.00 L 783.00 1706.00 L 791.00 1680.00 L 801.00 1665.00 L 810.00 1657.00 L 823.00 1651.00 Z M 1389.00 1633.00 L 1388.00 1644.00 L 1403.00 1651.00 L 1410.00 1662.00 L 1410.00 1813.00 L 1403.00 1823.00 L 1388.00 1829.00 L 1388.00 1838.00 L 1549.00 1839.00 L 1559.00 1789.00 L 1557.00 1778.00 L 1547.00 1780.00 L 1538.00 1802.00 L 1516.00 1820.00 L 1468.00 1822.00 L 1457.00 1808.00 L 1460.00 1741.00 L 1495.00 1741.00 L 1510.00 1753.00 L 1515.00 1764.00 L 1527.00 1762.00 L 1526.00 1700.00 L 1515.00 1699.00 L 1510.00 1712.00 L 1498.00 1722.00 L 1457.00 1721.00 L 1457.00 1653.00 L 1510.00 1653.00 L 1524.00 1664.00 L 1531.00 1681.00 L 1538.00 1683.00 L 1547.00 1680.00 L 1544.00 1634.00 Z M 973.00 1633.00 L 972.00 1644.00 L 984.00 1649.00 L 992.00 1659.00 L 994.00 1777.00 L 1000.00 1799.00 L 1012.00 1818.00 L 1036.00 1837.00 L 1075.00 1845.00 L 1121.00 1839.00 L 1142.00 1827.00 L 1159.00 1807.00 L 1169.00 1780.00 L 1171.00 1658.00 L 1178.00 1649.00 L 1193.00 1642.00 L 1193.00 1634.00 L 1122.00 1634.00 L 1122.00 1642.00 L 1137.00 1648.00 L 1146.00 1660.00 L 1144.00 1785.00 L 1123.00 1812.00 L 1109.00 1818.00 L 1080.00 1820.00 L 1063.00 1814.00 L 1048.00 1801.00 L 1040.00 1778.00 L 1039.00 1663.00 L 1048.00 1649.00 L 1063.00 1643.00 L 1063.00 1634.00 Z M 484.00 1634.00 L 484.00 1644.00 L 502.00 1656.00 L 506.00 1673.00 L 506.00 1800.00 L 502.00 1817.00 L 482.00 1829.00 L 483.00 1839.00 L 573.00 1838.00 L 573.00 1829.00 L 555.00 1818.00 L 551.00 1804.00 L 554.00 1742.00 L 643.00 1745.00 L 642.00 1813.00 L 635.00 1823.00 L 620.00 1829.00 L 621.00 1839.00 L 713.00 1838.00 L 712.00 1828.00 L 691.00 1817.00 L 687.00 1787.00 L 689.00 1659.00 L 697.00 1649.00 L 713.00 1644.00 L 712.00 1632.00 L 621.00 1634.00 L 621.00 1643.00 L 642.00 1656.00 L 640.00 1721.00 L 552.00 1718.00 L 553.00 1658.00 L 573.00 1642.00 L 571.00 1633.00 Z M 1307.00 1630.00 L 1269.00 1632.00 L 1242.00 1642.00 L 1222.00 1663.00 L 1217.00 1698.00 L 1226.00 1722.00 L 1249.00 1741.00 L 1311.00 1771.00 L 1320.00 1782.00 L 1322.00 1799.00 L 1316.00 1810.00 L 1305.00 1818.00 L 1285.00 1822.00 L 1269.00 1820.00 L 1248.00 1810.00 L 1233.00 1793.00 L 1224.00 1775.00 L 1214.00 1776.00 L 1214.00 1805.00 L 1220.00 1831.00 L 1256.00 1843.00 L 1297.00 1843.00 L 1333.00 1831.00 L 1354.00 1811.00 L 1363.00 1787.00 L 1363.00 1766.00 L 1353.00 1744.00 L 1328.00 1724.00 L 1271.00 1700.00 L 1260.00 1689.00 L 1256.00 1678.00 L 1257.00 1665.00 L 1266.00 1655.00 L 1292.00 1649.00 L 1320.00 1659.00 L 1339.00 1687.00 L 1350.00 1685.00 L 1347.00 1641.00 Z M 880.00 1634.00 L 853.00 1630.00 L 833.00 1631.00 L 797.00 1640.00 L 765.00 1660.00 L 752.00 1674.00 L 740.00 1694.00 L 731.00 1733.00 L 732.00 1759.00 L 736.00 1775.00 L 754.00 1808.00 L 770.00 1823.00 L 786.00 1833.00 L 824.00 1843.00 L 854.00 1843.00 L 887.00 1835.00 L 919.00 1815.00 L 935.00 1798.00 L 947.00 1777.00 L 955.00 1744.00 L 955.00 1721.00 L 949.00 1695.00 L 935.00 1670.00 L 923.00 1657.00 L 904.00 1644.00 Z M 946.00 1373.00 L 971.00 1375.00 L 993.00 1387.00 L 1011.00 1408.00 L 1018.00 1422.00 L 1026.00 1450.00 L 1028.00 1486.00 L 1026.00 1508.00 L 1020.00 1530.00 L 1012.00 1545.00 L 998.00 1560.00 L 983.00 1568.00 L 967.00 1572.00 L 953.00 1572.00 L 935.00 1566.00 L 920.00 1556.00 L 907.00 1543.00 L 901.00 1534.00 L 893.00 1514.00 L 887.00 1481.00 L 889.00 1438.00 L 895.00 1416.00 L 901.00 1403.00 L 917.00 1385.00 L 930.00 1377.00 Z M 1327.00 1356.00 L 1326.00 1370.00 L 1339.00 1375.00 L 1348.00 1385.00 L 1351.00 1422.00 L 1350.00 1557.00 L 1340.00 1570.00 L 1326.00 1576.00 L 1326.00 1587.00 L 1433.00 1589.00 L 1435.00 1577.00 L 1412.00 1572.00 L 1403.00 1559.00 L 1402.00 1485.00 L 1444.00 1483.00 L 1457.00 1489.00 L 1471.00 1510.00 L 1483.00 1510.00 L 1484.00 1436.00 L 1472.00 1434.00 L 1464.00 1452.00 L 1451.00 1462.00 L 1405.00 1464.00 L 1403.00 1378.00 L 1444.00 1375.00 L 1465.00 1379.00 L 1480.00 1390.00 L 1489.00 1412.00 L 1506.00 1410.00 L 1502.00 1358.00 Z M 1115.00 1356.00 L 1114.00 1369.00 L 1129.00 1375.00 L 1138.00 1393.00 L 1136.00 1562.00 L 1127.00 1572.00 L 1113.00 1577.00 L 1113.00 1587.00 L 1283.00 1588.00 L 1289.00 1568.00 L 1295.00 1516.00 L 1282.00 1515.00 L 1272.00 1544.00 L 1250.00 1564.00 L 1192.00 1567.00 L 1189.00 1564.00 L 1189.00 1387.00 L 1201.00 1373.00 L 1216.00 1370.00 L 1216.00 1357.00 Z M 916.00 1358.00 L 890.00 1370.00 L 870.00 1384.00 L 856.00 1398.00 L 842.00 1419.00 L 830.00 1464.00 L 830.00 1492.00 L 838.00 1523.00 L 846.00 1539.00 L 862.00 1559.00 L 889.00 1579.00 L 910.00 1587.00 L 930.00 1591.00 L 966.00 1592.00 L 989.00 1589.00 L 1013.00 1581.00 L 1033.00 1569.00 L 1055.00 1549.00 L 1069.00 1529.00 L 1077.00 1511.00 L 1083.00 1484.00 L 1083.00 1453.00 L 1073.00 1418.00 L 1059.00 1395.00 L 1045.00 1380.00 L 1010.00 1360.00 L 967.00 1352.00 Z M 618.00 1366.00 L 572.00 1400.00 L 552.00 1435.00 L 546.00 1487.00 L 562.00 1538.00 L 603.00 1577.00 L 639.00 1589.00 L 715.00 1591.00 L 768.00 1573.00 L 765.00 1503.00 L 784.00 1490.00 L 782.00 1476.00 L 685.00 1477.00 L 685.00 1492.00 L 706.00 1497.00 L 716.00 1512.00 L 716.00 1565.00 L 694.00 1571.00 L 662.00 1568.00 L 635.00 1554.00 L 613.00 1523.00 L 603.00 1485.00 L 607.00 1429.00 L 615.00 1409.00 L 632.00 1389.00 L 666.00 1375.00 L 695.00 1377.00 L 721.00 1391.00 L 749.00 1428.00 L 763.00 1424.00 L 756.00 1367.00 L 724.00 1356.00 L 685.00 1352.00 L 657.00 1354.00 Z M 1117.00 1199.00 L 1115.00 1203.00 L 1126.00 1211.00 L 1128.00 1220.00 L 1128.00 1297.00 L 1126.00 1302.00 L 1116.00 1308.00 L 1114.00 1312.00 L 1116.00 1314.00 L 1204.00 1314.00 L 1209.00 1292.00 L 1209.00 1284.00 L 1205.00 1282.00 L 1198.00 1296.00 L 1185.00 1306.00 L 1162.00 1307.00 L 1153.00 1298.00 L 1153.00 1262.00 L 1156.00 1259.00 L 1174.00 1259.00 L 1182.00 1265.00 L 1185.00 1271.00 L 1190.00 1270.00 L 1189.00 1236.00 L 1185.00 1236.00 L 1182.00 1244.00 L 1175.00 1250.00 L 1156.00 1250.00 L 1153.00 1247.00 L 1153.00 1210.00 L 1156.00 1207.00 L 1183.00 1209.00 L 1192.00 1217.00 L 1197.00 1227.00 L 1203.00 1225.00 L 1201.00 1201.00 L 1198.00 1199.00 Z M 967.00 1201.00 L 967.00 1204.00 L 978.00 1213.00 L 978.00 1302.00 L 967.00 1309.00 L 968.00 1314.00 L 1016.00 1313.00 L 1016.00 1310.00 L 1009.00 1308.00 L 1004.00 1300.00 L 1004.00 1266.00 L 1007.00 1263.00 L 1049.00 1263.00 L 1052.00 1266.00 L 1052.00 1300.00 L 1047.00 1307.00 L 1040.00 1310.00 L 1041.00 1314.00 L 1089.00 1313.00 L 1089.00 1309.00 L 1082.00 1306.00 L 1077.00 1298.00 L 1077.00 1213.00 L 1089.00 1204.00 L 1088.00 1199.00 L 1040.00 1200.00 L 1040.00 1204.00 L 1052.00 1214.00 L 1052.00 1250.00 L 1049.00 1253.00 L 1006.00 1253.00 L 1003.00 1250.00 L 1005.00 1211.00 L 1016.00 1205.00 L 1016.00 1200.00 Z M 936.00 1199.00 L 836.00 1201.00 L 836.00 1229.00 L 839.00 1228.00 L 852.00 1213.00 L 860.00 1209.00 L 869.00 1209.00 L 872.00 1212.00 L 872.00 1302.00 L 863.00 1309.00 L 865.00 1314.00 L 909.00 1313.00 L 909.00 1310.00 L 899.00 1301.00 L 899.00 1212.00 L 902.00 1209.00 L 911.00 1209.00 L 921.00 1213.00 L 928.00 1221.00 L 930.00 1229.00 L 934.00 1230.00 L 937.00 1228.00 Z M 914.00 928.00 L 917.00 931.00 L 910.00 945.00 L 896.00 960.00 L 884.00 968.00 L 881.00 965.00 L 899.00 950.00 Z M 840.00 832.00 L 826.00 836.00 L 814.00 842.00 L 792.00 862.00 L 782.00 879.00 L 778.00 892.00 L 778.00 925.00 L 784.00 943.00 L 792.00 956.00 L 802.00 967.00 L 816.00 977.00 L 836.00 985.00 L 851.00 987.00 L 871.00 985.00 L 884.00 981.00 L 901.00 971.00 L 918.00 953.00 L 929.00 930.00 L 931.00 921.00 L 931.00 897.00 L 921.00 869.00 L 911.00 856.00 L 900.00 846.00 L 886.00 838.00 L 868.00 832.00 Z M 562.00 1145.00 L 1048.00 1123.00 L 1485.00 1152.00 L 1375.00 1113.00 L 1374.00 857.00 L 1346.00 1109.00 L 1291.00 1099.00 L 1327.00 1068.00 L 1317.00 1036.00 L 1300.00 1066.00 L 1255.00 1082.00 L 1142.00 1074.00 L 1129.00 1060.00 L 1138.00 1041.00 L 1221.00 1021.00 L 1175.00 1002.00 L 1046.00 1016.00 L 936.00 1086.00 L 870.00 1088.00 L 867.00 1074.00 L 897.00 1005.00 L 814.00 1002.00 L 842.00 1087.00 L 714.00 1106.00 L 710.00 819.00 L 674.00 820.00 L 674.00 1111.00 Z M 1035.00 739.00 L 1034.00 740.00 L 1034.00 800.00 L 1035.00 801.00 L 1096.00 801.00 L 1097.00 800.00 L 1097.00 740.00 L 1096.00 739.00 Z M 951.00 739.00 L 950.00 740.00 L 950.00 800.00 L 951.00 801.00 L 1012.00 801.00 L 1013.00 800.00 L 1013.00 740.00 L 1012.00 739.00 Z M 1035.00 654.00 L 1034.00 655.00 L 1034.00 716.00 L 1035.00 717.00 L 1096.00 717.00 L 1097.00 716.00 L 1097.00 655.00 L 1096.00 654.00 Z M 951.00 654.00 L 950.00 655.00 L 950.00 716.00 L 951.00 717.00 L 1012.00 717.00 L 1013.00 716.00 L 1013.00 655.00 L 1012.00 654.00 Z M 1288.00 642.00 L 1288.00 710.00 L 1413.00 817.00 L 1495.00 816.00 L 1491.00 810.00 L 1296.00 646.00 Z M 1215.00 582.00 L 1035.00 429.00 L 1016.00 426.00 L 846.00 569.00 L 843.00 526.00 L 757.00 526.00 L 756.00 643.00 L 554.00 816.00 L 630.00 817.00 L 1023.00 489.00 L 1214.00 648.00 Z M 1288.00 296.00 L 1289.00 465.00 L 1479.00 382.00 L 1290.00 294.00 Z M 1258.00 258.00 L 1246.00 259.00 L 1237.00 272.00 L 1237.00 1062.00 L 1259.00 1057.00 L 1270.00 1043.00 L 1267.00 267.00 Z" fill="currentColor" fill-rule="evenodd"/>
</svg>
